<svg xmlns="http://www.w3.org/2000/svg" viewBox="0 0 297.25 139.64"><defs><style>.cls-1{fill:#1d1d1b;}.cls-2{fill:#e20000;}</style></defs><g id="Capa_2" data-name="Capa 2"><g id="Capa_7" data-name="Capa 7"><path class="cls-1" d="M141.14,120.9a4,4,0,0,1,.92,1.46,5.18,5.18,0,0,1,.32,1.78A4.78,4.78,0,0,1,142,126a5.13,5.13,0,0,1-1,1.56,4.75,4.75,0,0,1-1.61,1.06,4.69,4.69,0,0,1-1.89.38h-4.88v-3.19h4.88a1.63,1.63,0,0,0,1.23-.46,1.71,1.71,0,0,0,.44-1.23,1.8,1.8,0,0,0-.46-1.29,1.55,1.55,0,0,0-1.21-.49h-4.88v-3h4.88a1.6,1.6,0,0,0,1.23-.48,1.85,1.85,0,0,0,.44-1.29,1.71,1.71,0,0,0-.44-1.23,1.6,1.6,0,0,0-1.23-.48h-4.88v-3.17h4.88a4.69,4.69,0,0,1,1.89.38,5,5,0,0,1,1.61,1,5.15,5.15,0,0,1,1,1.59,4.76,4.76,0,0,1,.37,1.87A5,5,0,0,1,141.14,120.9Z"/><path class="cls-1" d="M153.05,114.42a6.06,6.06,0,0,1,1.92,4.41,5.87,5.87,0,0,1-1.92,4.34,6.3,6.3,0,0,1-4.59,1.65h-1.92V129h-3.27v-7.2h5.3a4.28,4.28,0,0,0,1.13-.13,2.1,2.1,0,0,0,1-.57,3.11,3.11,0,0,0,.94-2.29,3,3,0,0,0-.94-2.33,2.47,2.47,0,0,0-1-.56,5.22,5.22,0,0,0-1.28-.17h-5.15v-3.08h5.16A6.26,6.26,0,0,1,153.05,114.42Z"/><path class="cls-1" d="M159.4,126h5.15v3H156.5a.28.28,0,0,1-.24-.11.37.37,0,0,1-.11-.23v-16h3.25Z"/><path class="cls-1" d="M181.22,112.69v3h-8.57v-3Zm0,6.51v3.08H176V126h5.25v3h-8.57V119.2Z"/><path class="cls-1" d="M182.12,119.4h9.79v3.24h-9.79Z"/><path class="cls-1" d="M201.39,124.31v-.7h3.24v.7a3.36,3.36,0,0,1-.08.79,4.54,4.54,0,0,1-.28,1,5.51,5.51,0,0,1-1.07,1.52,4.78,4.78,0,0,1-3.31,1.38h-1.4a4.89,4.89,0,0,1-1.86-.36,5.42,5.42,0,0,1-1.25-.76.46.46,0,0,1-.16-.15,4.6,4.6,0,0,1-1.06-1.52,3.88,3.88,0,0,1-.35-1.19c0-.2,0-.4,0-.6v-7a4.77,4.77,0,0,1,.07-.76,5.66,5.66,0,0,1,.32-1,5,5,0,0,1,1.06-1.5,4.57,4.57,0,0,1,1.52-1,4.67,4.67,0,0,1,1.83-.36H200A4.83,4.83,0,0,1,203,113.8l.17.18a5,5,0,0,1,1.05,1.5,4.9,4.9,0,0,1,.35,1.21q0,.3,0,.6v.94h-3.24v-.94a1.43,1.43,0,0,0-.44-1.09l0,0h0a1.73,1.73,0,0,0-.92-.29h-1.41a1.5,1.5,0,0,0-1.11.43,1.41,1.41,0,0,0-.45,1.08v7a1.4,1.4,0,0,0,.34,1l.17.14a1.57,1.57,0,0,0,1,.32h1.4a1.52,1.52,0,0,0,1.06-.44A1.49,1.49,0,0,0,201.39,124.31Z"/><path class="cls-1" d="M215.92,114.1a4.73,4.73,0,0,1,1.43,3.35v6.81a4.36,4.36,0,0,1-.38,1.84,4.55,4.55,0,0,1-1.05,1.53,5,5,0,0,1-3.43,1.39h-1.42a4.88,4.88,0,0,1-3.46-1.39,5.13,5.13,0,0,1-1.1-1.54,4.44,4.44,0,0,1-.38-1.83v-6.81a4.2,4.2,0,0,1,.4-1.82,5,5,0,0,1,1.08-1.53,4.76,4.76,0,0,1,1.57-1,4.87,4.87,0,0,1,1.89-.38h1.41a5,5,0,0,1,1.84.38A4.78,4.78,0,0,1,215.92,114.1Zm-2.33,2.13a1.73,1.73,0,0,0-1.13-.44H211a1.57,1.57,0,0,0-1.14.44,1.48,1.48,0,0,0-.44,1.1v7a1.45,1.45,0,0,0,.44,1.1,1.61,1.61,0,0,0,1.14.44h1.4a1.66,1.66,0,0,0,1.16-.44,1.41,1.41,0,0,0,.48-1.1v-7A1.44,1.44,0,0,0,213.59,116.23Z"/><path class="cls-1" d="M222,112.79l5.43,12.76h-3.26l-1.22-2.84c-.4-.93-.72-1.68-.95-2.23l-.25-.63V129h-2.94V112.69h3.13S221.93,112.72,222,112.79Zm10.14-.1V129h-2.93v-9.17l-.27.63c-.1.24-.23.54-.38.91s-.32.73-.47,1.09l-1.54-4.28c.33-.74.67-1.51,1-2.3s.65-1.49.91-2.07.41-.93.47-1,.06-.1.08-.1Z"/><path class="cls-1" d="M237.85,112.79l5.43,12.76H240c-.42-1-.82-1.91-1.22-2.84s-.72-1.68-1-2.23l-.25-.63V129h-2.94V112.69h3.13S237.82,112.72,237.85,112.79Zm10.15-.1V129h-2.94v-9.17l-.27.63c-.1.24-.22.54-.38.91l-.46,1.09-1.54-4.28c.33-.74.66-1.51,1-2.3s.64-1.49.9-2.07l.47-1c0-.07.07-.1.08-.1Z"/><path class="cls-1" d="M259.13,112.69v3h-8.57v-3Zm0,6.51v3.08h-5.26V126h5.26v3h-8.57V119.2Z"/><path class="cls-1" d="M270.78,123.48a6.77,6.77,0,0,1,1.65,2.18,6.07,6.07,0,0,1,.62,2.7V129h-3.28v-.66a3.32,3.32,0,0,0-2-3.18,3.07,3.07,0,0,0-1.26-.27h-1.87V129h-3.29v-7.2h5.31a4.25,4.25,0,0,0,1.12-.13,2.1,2.1,0,0,0,1-.57,3.11,3.11,0,0,0,.94-2.29,3,3,0,0,0-.94-2.33,2.47,2.47,0,0,0-1-.56,5.22,5.22,0,0,0-1.28-.17h-5.15V113a.41.41,0,0,1,.08-.25.36.36,0,0,1,.27-.1h4.81a6.26,6.26,0,0,1,4.62,1.73,6.06,6.06,0,0,1,1.92,4.41,5.87,5.87,0,0,1-1.92,4.34A3.38,3.38,0,0,1,270.78,123.48Z"/><path class="cls-1" d="M282.23,124.31v-.7h3.24v.7a4,4,0,0,1-.08.79,4.09,4.09,0,0,1-.29,1,5.27,5.27,0,0,1-1.06,1.52,4.92,4.92,0,0,1-1.54,1,4.83,4.83,0,0,1-1.78.36h-1.39a4.89,4.89,0,0,1-1.86-.36,5.22,5.22,0,0,1-1.25-.76.46.46,0,0,1-.16-.15,4.78,4.78,0,0,1-1.07-1.52,4.17,4.17,0,0,1-.35-1.19q0-.3,0-.6v-7a3.84,3.84,0,0,1,.07-.76,6.52,6.52,0,0,1,.31-1,5,5,0,0,1,1.07-1.5,4.57,4.57,0,0,1,1.52-1,4.67,4.67,0,0,1,1.83-.36h1.41a5.06,5.06,0,0,1,1.79.36,5,5,0,0,1,1.26.75l.17.18a4.72,4.72,0,0,1,1.4,2.71q0,.3,0,.6v.94h-3.24v-.94a1.46,1.46,0,0,0-.44-1.09l0,0h0a1.76,1.76,0,0,0-.92-.29h-1.41a1.54,1.54,0,0,0-1.12.43,1.44,1.44,0,0,0-.44,1.08v7a1.45,1.45,0,0,0,.33,1,1.24,1.24,0,0,0,.18.14,1.55,1.55,0,0,0,1,.32h1.39a1.5,1.5,0,0,0,1.51-1.54Z"/><path class="cls-1" d="M295.46,112.69v3h-8.57v-3Zm0,6.51v3.08H290.2V126h5.26v3h-8.57V119.2Z"/><path class="cls-2" d="M116.44,113.44a2.39,2.39,0,0,1,.24.18l-.82.49c-3.84,2.22-7.68,4.46-11.53,6.68l-1.41.82a.75.75,0,0,1-.63.06c-1.8-1-3.59-2-5.37-3a1.26,1.26,0,0,1-.2-.15c.36-.22.67-.42,1-.61,4.2-2.5,8.39-5,12.6-7.51a.78.78,0,0,1,.59-.07C112.77,111.32,114.6,112.38,116.44,113.44Z"/><path class="cls-2" d="M107.64,108.4l.47.29-1.72,1-11.85,7.07a.66.66,0,0,1-.78,0c-1.64-1-3.29-1.9-4.94-2.84-.14-.07-.27-.16-.49-.3l4.25-2.48c3.14-1.83,6.31-3.66,9.46-5.51a.76.76,0,0,1,.91,0C104.5,106.62,106.08,107.5,107.64,108.4Z"/><path class="cls-2" d="M117.84,115.05l-.4.19c-4.26,2.47-8.49,5-12.78,7.4a1.8,1.8,0,0,0-1,1.87c.06,4.84.06,9.69.09,14.54,0,.16,0,.33,0,.56.19-.09.32-.15.44-.22q6.67-3.88,13.36-7.76a.66.66,0,0,0,.37-.69l-.06-15.32Z"/><path class="cls-2" d="M101.71,139.64v-.41q0-7.81-.07-15.65a.68.68,0,0,0-.29-.47c-1.72-1-3.46-2-5.19-3a2.77,2.77,0,0,0-.37-.17c0,.23,0,.4,0,.57,0,1.55,0,3.09,0,4.64a1.21,1.21,0,0,1-1.26,1.23,1.29,1.29,0,0,1-1.24-1.34c0-2.07,0-4.15,0-6.23a.56.56,0,0,0-.34-.56c-1.39-.78-2.77-1.58-4.15-2.37l-1.33-.76a3.76,3.76,0,0,0,0,.4q0,7.8,0,15.61a.61.61,0,0,0,.38.59l13,7.4Z"/><path class="cls-2" d="M4.49,47.77c.14,36.84,14.22,66.64,56.12,66.49l8.21,0L68.7,107l16.73,15.81L67.91,139.21,68,132.9l-7.29,0C-23.6,129.63,4.49,47.77,4.49,47.77Z"/><path class="cls-2" d="M121.44,113.45c-1.18-3.47-2.36-6.93-3.61-10.58h-2.51l-43.87.18A52.2,52.2,0,0,1,20.3,63.63C15,43,24.34,20.1,42.32,8.36,67.53-8.11,100.48.75,115,26.22a47.5,47.5,0,0,1,6.54,23.51c.15,21,.21,42,.3,63a5.41,5.41,0,0,1-.07.68ZM107.64,74c0-5.1,0-10.16-.07-15.23-.07-9-5.78-15.45-14.68-16.61A16.37,16.37,0,0,0,74.51,55.55c-1.39,8.69,4.26,17.29,13.08,18.39C94.07,74.74,100.74,74.05,107.64,74Z"/><path class="cls-2" d="M118.58,25c-1.57-1.16-1.45-2.12-.24-3.43C128,11,140,6.24,154.22,7.06c6.08.34,12.12,1,17.78,3.37a17.82,17.82,0,0,1,5.39,3.74,3.71,3.71,0,0,1,.54,3.32c-.19.54-2,.82-3,.71-8.93-.95-17.81-2.44-26.76-2.94a40.67,40.67,0,0,0-25.82,6.87c-.7.48-1.36,1-2,1.51S119.15,24.57,118.58,25Z"/><path class="cls-2" d="M128.54,10a30.25,30.25,0,0,1,13.7-7.56,56,56,0,0,1,25.09-.83A12.48,12.48,0,0,1,171,3a2.65,2.65,0,0,1,1.14,3.76c-.69,1.47-1.78,1.13-3.09.77-11.38-3.17-22.8-4.1-34.21-.21C132.66,8,130.63,9.11,128.54,10Z"/><path class="cls-1" d="M183.05,41.18a22.36,22.36,0,0,1,1.7,8.48l.19,52.55-14.57.06-.07-18.41-11,0-.05-14.5,11,0-.08-20.15a6.81,6.81,0,0,0-2.12-5.14,7.19,7.19,0,0,0-5.22-2l-8.56,0a6.07,6.07,0,0,0-4.12,2,7,7,0,0,0-2,5.16l.19,53.06-14.64.05-.19-52.55a21.32,21.32,0,0,1,1.7-8.49A23.44,23.44,0,0,1,140,34.24,21.65,21.65,0,0,1,147,29.43a21.38,21.38,0,0,1,8-1.7l7.83,0a21.62,21.62,0,0,1,8.41,1.64,22.52,22.52,0,0,1,7.12,4.76A22,22,0,0,1,183.05,41.18Z"/><path class="cls-1" d="M228.17,27.46l13.7-.05.28,74.6-14.57,0q-.22,0-3.07-6.37t-6.36-14.55q-3.59-8.17-9-20.91l.15,41.9-13.41,0-.27-74.59,14.28,0q.21,0,3.06,6.3t6.36,14.47q3.51,8.12,9,20.85Z"/><path class="cls-1" d="M249.07,27.39l48.13-.18.05,13.85-16.82.06.22,60.75-14.78,0-.23-60.75-16.52.06Z"/></g></g></svg>